<?xml version='1.0' encoding='utf-8'?>
<svg xmlns="http://www.w3.org/2000/svg" xmlns:xlink="http://www.w3.org/1999/xlink" enable-background="new 0 0 171.95 101.9" version="1.1" viewBox="0 0 171.95 101.9">
<symbol id="ap" viewBox="-0.033 -10.533 171.936 10.551">
		<path d="m163.8-3.2c4.233-0.667 6.883-1.333 7.95-2 0.633-0.533-0.7-0.966-4-1.3-4.633-0.467-6.967-0.7-7-0.7-2.2-0.466-5-0.75-8.4-0.85-3.167-0.1-5.934-0.05-8.3 0.15-1.233 0.1-3.75 0.15-7.55 0.15-1.067 0-3.233 0.15-6.5 0.45-2.633 0.233-4.833 0.267-6.6 0.1-1.867-0.167-4.333-0.45-7.4-0.85-3.733-0.5-6.217-0.817-7.45-0.95-7.433-0.8-11.583-1.233-12.45-1.3-5.1-0.367-9.25-0.3-12.45 0.2-5.167 0.833-10.583 1.333-16.25 1.5-1.467 0.033-6.983 0.033-16.55 0-0.567 0-1.434 0.267-2.6 0.8-1.067 0.533-1.883 0.75-2.45 0.65-6.2-0.933-10.067-1.483-11.6-1.65-3.867-0.434-7.534-0.55-11-0.35-5.467 0.267-9.083 0.483-10.85 0.65-5.6 0.567-9.467 1.45-11.6 2.65-1.567 0.667-0.783 1.083 2.35 1.25 2.867 0.133 5.3 0.05 7.3-0.25 12.8-1.9 21.983-2.167 27.55-0.8 2.7 0.667 5.55 0.8 8.55 0.4 3.3-0.4 6.75-0.267 10.35 0.4 3.5 0.633 8.283 1 14.35 1.1 6.833 0.133 11.6 0.367 14.3 0.7 1.5 0.167 3.65 0.216 6.45 0.15 2.933-0.1 5.083-0.083 6.45 0.05 1.567 0.133 4.783 0.7 9.65 1.7 3.934 0.8 7.184 1.133 9.75 1 0.667-0.033 2.6-0.217 5.8-0.55 2.367-0.233 4.283-0.316 5.75-0.25 0.967 0.034 3.25 0.233 6.85 0.6 2.8 0.3 5.083 0.417 6.85 0.35 3.3-0.2 5.784-0.433 7.45-0.7 1.8-0.267 3.5-0.633 5.1-1.1 0.47-0.133 3.2-0.6 8.2-1.4z" clip-rule="evenodd" fill="#757D7D" fill-rule="evenodd"/>
</symbol>
			<use transform="matrix(1 0 0 -1 .0498 91.35)" x="-0.033" y="-10.533" width="171.936" height="10.551" enable-background="new" opacity=".4688" xlink:href="#ap"/>
			<linearGradient id="af" x1="45.373" x2="159.56" y1="60.4" y2="60.4" gradientTransform="matrix(.9996 -.0289 .0289 .9996 -.00022958 -3.5129e-5)" gradientUnits="userSpaceOnUse">
			<stop stop-color="#12C4C4" offset="0"/>
			<stop stop-color="#12BEC3" offset=".0902"/>
			<stop stop-color="#12ACC0" offset=".2157"/>
			<stop stop-color="#1290BC" offset=".3608"/>
			<stop stop-color="#1269B6" offset=".5137"/>
			<stop stop-color="#1241B0" offset=".6471"/>
			<stop stop-color="#134AAD" offset=".7333"/>
			<stop stop-color="#1661A4" offset=".8706"/>
			<stop stop-color="#1A7D99" offset="1"/>
		</linearGradient>
		<path d="m139.15 44.45c0.3-4.767 0.633-7.15 1-7.15 0.466-0.033 1.449 2.3 2.949 7 0.9 2.833 2.584 8.3 5.051 16.4 1.366 4.2 2.85 8.816 4.449 13.85 1.134 3.367 2.417 6.566 3.851 9.601 0.899 1.933 2.25 4.433 4.05 7.5 1.1 1.899 1.733 3.383 1.9 4.449-1.233 1.233-3 1.983-5.301 2.25-0.866 0.101-2.633 0.101-5.3 0-1.2-0.033-3.184-0.116-5.95-0.25-2.533-0.133-4.517-0.216-5.949-0.25-0.967 0-2.634-0.116-5-0.35-2.067-0.167-3.767-0.233-5.101-0.2-3.533 0.101-9.883 0.667-19.05 1.7-8.3 0.9-15.967 1.35-23 1.35-1.866 0-4.783-0.383-8.75-1.149-3.633-0.667-6.6-0.917-8.9-0.75-1.3 0.1-3.267 0.05-5.9-0.15-2.5-0.2-4.483-0.217-5.95-0.05-7.033 0.667-10.367 0.517-10-0.45 0.3-0.733 1.2-1.967 2.7-3.7 2.3-2.699 4.917-4.933 7.85-6.699 2.333-1.434 3.883-2.467 4.65-3.101 1.066-0.866 1.85-1.833 2.35-2.899 1-2.334 1.983-4.483 2.95-6.45 1.833-3.733 3.833-7.117 6-10.15 2.667-3.7 4.15-5.783 4.45-6.25 0.4-0.566 0.983-1.55 1.75-2.95 1.3-2.1 2.383-3.949 3.25-5.55 1.6-2.933 3-6.133 4.2-9.6 1.566-5.167 2.733-8.833 3.5-11 1.333-3.667 3.083-6.65 5.25-8.95 1.733-1.833 3.216-3.5 4.449-5 0.4-0.5 0.65-0.667 0.75-0.5 0.101 0.2-0.05 1.7-0.449 4.5-0.2 3.133 0.25 5.667 1.35 7.6 0.9 1.566 1.934 3.183 3.1 4.85 0.834 1.367 1.4 3.267 1.7 5.7 0.4 3.133 1.617 6.617 3.65 10.45 2.233 4.167 4.883 7.7 7.95 10.6 1.366 1.3 2.866 2.633 4.5 4 1 0.899 1.533 1.767 1.6 2.6 0.3 4.267 1.417 9.634 3.35 16.101 0.334-0.267 0.567-0.884 0.7-1.851 0.5-2.6 0.917-4.434 1.25-5.5 0.267-0.934 0.884-2.5 1.851-4.7 0.233-0.566 1.05-1.583 2.449-3.05 0.9-0.934 1.684-3.35 2.351-7.25 0.53-3.236 1.02-8.102 1.45-14.602z" clip-rule="evenodd" fill="url(#af)" fill-rule="evenodd"/>
			<linearGradient id="ah" x1="-152.08" x2="-115.21" y1="69.07" y2="69.07" gradientTransform="matrix(-.377 -.9262 .9262 -.377 -.00022385 -.00051016)" gradientUnits="userSpaceOnUse">
			<stop stop-color="#87D6D4" offset="0"/>
			<stop stop-color="#87D6D4" stop-opacity="0" offset="1"/>
		</linearGradient>
		<path d="m116.1 75.25c2.067-0.767 4.267-0.05 6.601 2.15 1.467 1.366 3.467 4.966 6 10.8 1.3 2.899 2.434 5.666 3.399 8.3-3.767-0.033-7.833 0.333-12.199 1.1-2.7 0.467-7.367 0.917-14 1.351l-9.15 0.55c2.033-0.5 4.467-3.066 7.3-7.7 3-5.5 5.117-9.184 6.351-11.05 2.1-3.034 4-4.867 5.7-5.501z" clip-rule="evenodd" fill="url(#ah)" fill-rule="evenodd"/>
			<linearGradient id="ai" x1="-112.91" x2="-87.597" y1="31.987" y2="31.987" gradientTransform="matrix(-.2666 -.9638 .9638 -.2666 -.00020888 .00088733)" gradientUnits="userSpaceOnUse">
			<stop stop-color="#87D6D4" offset="0"/>
			<stop stop-color="#87D6D4" stop-opacity="0" offset="1"/>
		</linearGradient>
		<path d="m49.3 97c0.833-1.033 1.833-2.134 3-3.3 2.333-2.4 4.383-4.017 6.15-4.851 1.433-0.666 2.8-1.366 4.1-2.1 0.7-0.3 1.25-0.217 1.65 0.25 0.333 0.366 1.25 1.917 2.75 4.65 1.6 2.699 2.966 4.333 4.1 4.899 2.133 1.066-0.117 1.316-6.75 0.75-1.667-0.133-5.6 0.117-11.8 0.75-1.933 0.167-3.1 0.217-3.5 0.15-0.733-0.098-0.633-0.498 0.3-1.198z" clip-rule="evenodd" fill="url(#ai)" fill-rule="evenodd"/>
			<linearGradient id="aj" x1="-82.444" x2="-58.395" y1="69.033" y2="69.033" gradientTransform="matrix(-.2672 -.9637 .9637 -.2672 -2.9266e-5 -.00049996)" gradientUnits="userSpaceOnUse">
			<stop stop-color="#87D6D4" offset="0"/>
			<stop stop-color="#87D6D4" stop-opacity="0" offset="1"/>
		</linearGradient>
		<path d="m87.25 45.95c2.3-6.1 3.884-9.383 4.75-9.85 0.8-0.434 1.55 1.333 2.25 5.3 0.634 3.7 0.85 6.517 0.65 8.45-0.2 1.6-0.95 4-2.25 7.2-1.633 4.066-6.35 5.65-14.15 4.75-0.667-0.066-1.033-0.133-1.1-0.2-0.033-0.033 0.117-0.183 0.45-0.449 1.333-0.967 2.45-2.151 3.35-3.551 2.7-4.2 4.717-8.083 6.05-11.65z" clip-rule="evenodd" fill="url(#aj)" fill-rule="evenodd"/>
			<linearGradient id="ak" x1="-98.786" x2="-75.495" y1="80.592" y2="80.592" gradientTransform="matrix(-.3768 -.9263 .9263 -.3768 -.00015619 .00060067)" gradientUnits="userSpaceOnUse">
			<stop stop-color="#87D6D4" offset="0"/>
			<stop stop-color="#87D6D4" stop-opacity="0" offset="1"/>
		</linearGradient>
		<path d="m105.35 34.3c0.434-0.566 0.851-0.017 1.25 1.65 1.067 4.333 1.884 7.383 2.45 9.15 1.134 3.566 4 8 8.601 13.3 2.333 2.666 4.533 4.966 6.6 6.899-3.1 1.467-7.417 1.75-12.95 0.851-6.666-1.067-10.434-3.867-11.3-8.4-0.833-4.366-0.333-9.35 1.5-14.95 1.23-3.667 2.52-6.5 3.85-8.5z" clip-rule="evenodd" fill="url(#ak)" fill-rule="evenodd"/>
			<linearGradient id="al" x1="-110.72" x2="-95.801" y1="18.56" y2="18.56" gradientTransform="matrix(-.9163 -.4004 .4004 -.9163 -9.4742e-5 -.00078067)" gradientUnits="userSpaceOnUse">
			<stop stop-color="#87D6D4" offset="0"/>
			<stop stop-color="#87D6D4" stop-opacity="0" offset="1"/>
		</linearGradient>
		<path d="m101.7 16.05c-0.434 1.7-0.55 4.233-0.351 7.6 0.134 2 1.051 4.1 2.75 6.3 1.467 1.833 2.15 2.783 2.051 2.85-0.634 0.534-1.851 0.483-3.65-0.15-2.2-0.833-3.667-2.483-4.4-4.95-0.699-2.4-0.316-5.067 1.15-8 0.77-1.433 1.58-2.65 2.45-3.65z" clip-rule="evenodd" fill="url(#al)" fill-rule="evenodd"/>
			<linearGradient id="am" x1="-116.99" x2="-107.24" y1="68.894" y2="68.894" gradientTransform="matrix(-.3771 -.9262 .9262 -.3771 .00026903 .00028157)" gradientUnits="userSpaceOnUse">
			<stop stop-color="#87D6D4" offset="0"/>
			<stop stop-color="#87D6D4" stop-opacity="0" offset="1"/>
		</linearGradient>
		<path d="m104.5 76.65c1.167-1.334 2.583-1.817 4.25-1.45 1.667 0.399 2.316 1.316 1.95 2.75-0.634 2.8-2.367 5.35-5.2 7.649-1.134 0.934-1.816-0.083-2.05-3.05-0.2-2.933 0.15-4.899 1.05-5.899z" clip-rule="evenodd" fill="url(#am)" fill-rule="evenodd"/>
			<linearGradient id="an" x1="-138.58" x2="-105.22" y1="108.68" y2="108.68" gradientTransform="matrix(-.3763 -.9265 .9265 -.3763 .00010762 .0004479)" gradientUnits="userSpaceOnUse">
			<stop stop-color="#87D6D4" offset="0"/>
			<stop stop-color="#87D6D4" stop-opacity="0" offset="1"/>
		</linearGradient>
		<path d="m146.6 58.5l0.551 2.35c0.466 2.067 1.05 4.334 1.75 6.801 1.133 3.966 3.767 10.649 7.899 20.05-1.399-0.4-3.083-1.283-5.05-2.65-3.9-2.7-7.167-6.434-9.8-11.2-2.767-5-3.101-9.116-1-12.35 0.767-1.2 1.767-2.083 3-2.65 1.07-0.535 1.95-0.651 2.65-0.351z" clip-rule="evenodd" fill="url(#an)" fill-rule="evenodd"/>
			<linearGradient id="ao" x1="-124.56" x2="-89.643" y1="38.57" y2="38.57" gradientTransform="matrix(-.3766 -.9264 .9264 -.3766 .00010857 -.00093278)" gradientUnits="userSpaceOnUse">
			<stop stop-color="#87D6D4" offset="0"/>
			<stop stop-color="#87D6D4" stop-opacity="0" offset="1"/>
		</linearGradient>
		<path d="m83.7 78.15c1.1 3.966 2.533 10.433 4.3 19.399-2.634 0.134-5.383 0.05-8.25-0.25-5.8-0.666-9.35-2.149-10.65-4.45-2.833-4.966-2.517-10.6 0.95-16.899 1.3-2.3 2.767-4.233 4.4-5.8 1.566-1.467 2.667-2.051 3.3-1.75l2.35 2.649c1.7 2.267 2.9 4.635 3.6 7.101z" clip-rule="evenodd" fill="url(#ao)" fill-rule="evenodd"/>
			<linearGradient id="v" x1="-104.56" x2="-90.826" y1="109.63" y2="109.63" gradientTransform="matrix(-.3767 -.9263 .9263 -.3767 6.2287e-5 .00030828)" gradientUnits="userSpaceOnUse">
			<stop stop-color="#87D6D4" offset="0"/>
			<stop stop-color="#87D6D4" stop-opacity="0" offset="1"/>
		</linearGradient>
		<path d="m140.05 39.75l1.15 2.65c0.833 2.2 1.483 4.467 1.95 6.8 0.566 2.899 0.833 4.55 0.8 4.95-0.033 0.533-0.5 1.083-1.4 1.649-0.767 0.5-1.783 1.65-3.05 3.45l-1.65 2.5c0.334-1.634 0.717-3.767 1.15-6.4 0.267-1.633 0.517-4.733 0.75-9.3l0.3-6.299z" clip-rule="evenodd" fill="url(#v)" fill-rule="evenodd"/>
			<linearGradient id="w" x1="-142.6" x2="-125.38" y1="97.087" y2="97.087" gradientTransform="matrix(-.3774 -.9261 .9261 -.3774 -8.1986e-5 .00080886)" gradientUnits="userSpaceOnUse">
			<stop stop-color="#87D6D4" offset="0"/>
			<stop stop-color="#87D6D4" stop-opacity="0" offset="1"/>
		</linearGradient>
		<path d="m135.6 96.6c-0.199-3.033-0.25-6.1-0.149-9.199 0.233-6.233 1.166-9.567 2.8-10 1.9-0.534 4.45 1.466 7.65 6 3.033 4.3 5.466 9.1 7.3 14.399-0.8-0.166-2.9-0.316-6.3-0.45-2.101-0.1-4.617-0.25-7.551-0.449l-3.75-0.301z" clip-rule="evenodd" fill="url(#w)" fill-rule="evenodd"/>
	<g clip-rule="evenodd" fill-rule="evenodd">
			<linearGradient id="x" x1="-10.814" x2="53.36" y1="56.862" y2="56.862" gradientTransform="matrix(.9837 -.18 .18 .9837 9.9853e-5 .00023726)" gradientUnits="userSpaceOnUse">
			<stop stop-color="#12C4C4" offset="0"/>
			<stop stop-color="#12BEC3" offset=".0902"/>
			<stop stop-color="#12ACC0" offset=".2157"/>
			<stop stop-color="#1290BC" offset=".3608"/>
			<stop stop-color="#1269B6" offset=".5137"/>
			<stop stop-color="#1241B0" offset=".6471"/>
			<stop stop-color="#134AAD" offset=".7333"/>
			<stop stop-color="#1661A4" offset=".8706"/>
			<stop stop-color="#1A7D99" offset="1"/>
		</linearGradient>
		<path d="m41.5 24.9c0.767-1.4 2.75-5.566 5.95-12.5 2.833-6.133 4.75-9.95 5.75-11.45 1.133-1.667 1.383-1.083 0.75 1.75-1.1 4.267-1.9 7.533-2.4 9.8-0.433 2-1.5 7.483-3.2 16.45-0.3 1.667-0.833 3.816-1.6 6.45-0.333 1.2-0.517 3.2-0.55 6-0.034 3.6-0.184 6.417-0.45 8.45-0.267 1.933-0.733 3.833-1.4 5.7-0.434 1.233-0.383 2.334 0.15 3.3 0.867 1.434 1.367 3.217 1.5 5.351 0.3 4.333-0.783 15.55-3.25 33.649l-7 1.301c-3.067 0.6-7.017 0.833-11.85 0.699-3.967-0.133-6.6-0.366-7.9-0.699-1.733-0.434-3.533-0.684-5.4-0.75-1.467-0.101-2.583-0.317-3.35-0.65-0.767-0.366-0.133-2.066 1.9-5.1 2.8-4.267 4.633-7.9 5.5-10.9 1.167-3.967 2.684-8.667 4.55-14.1 1.667-4.867 2.667-7.667 3-8.4 0.367-0.767 3.35-4.983 8.95-12.65 0.7-0.967 1.083-1.667 1.15-2.1 0.167-1 1.284-3.617 3.35-7.85 1.867-3.8 3.167-6.5 3.9-8.1 0.067-0.168 0.717-1.384 1.95-3.651z" fill="url(#x)"/>
			<linearGradient id="y" x1="-97.341" x2="-56.145" y1="-2.1875" y2="-2.1875" gradientTransform="matrix(-.267 -.9637 .9637 -.267 -.00033513 .00019452)" gradientUnits="userSpaceOnUse">
			<stop stop-color="#87D6D4" offset="0"/>
			<stop stop-color="#87D6D4" stop-opacity="0" offset="1"/>
		</linearGradient>
		<path d="m23.3 59.25c0.9 0.3 1.883 2.083 2.95 5.35 1.267 3.767 1.967 7.934 2.1 12.5 0.033 0.567 0.167 1.717 0.4 3.45 0.133 0.9 0.05 1.634-0.25 2.2-4.4 1.2-8.133 3.967-11.2 8.3-1.533 2.2-2.633 4.267-3.3 6.2 0.167-2.533 0.467-5.483 0.9-8.85 0.9-6.667 2.05-12.017 3.45-16.051 1.433-4.033 2.683-7.433 3.75-10.199l1.2-2.9z" fill="url(#y)"/>
			<linearGradient id="z" x1="-97.323" x2="-86.612" y1="-14.662" y2="-14.662" gradientTransform="matrix(-.2661 -.964 .964 -.2661 -.00016031 -.00023726)" gradientUnits="userSpaceOnUse">
			<stop stop-color="#87D6D4" offset="0"/>
			<stop stop-color="#87D6D4" stop-opacity="0" offset="1"/>
		</linearGradient>
		<path d="m7.6 96.5c0.933-1.667 1.85-3.267 2.75-4.8 1.833-3.033 2.767-4.117 2.8-3.25 0.067 1.366-0.083 4.383-0.45 9.05-0.934 0.2-1.85 0.316-2.75 0.35-1.767 0.034-2.55-0.416-2.35-1.35z" fill="url(#z)"/>
			<linearGradient id="aa" x1="-100.66" x2="-62.547" y1="21.468" y2="21.468" gradientTransform="matrix(-.267 -.9637 .9637 -.267 -5.2899e-5 -2.2888e-5)" gradientUnits="userSpaceOnUse">
			<stop stop-color="#87D6D4" offset="0"/>
			<stop stop-color="#87D6D4" stop-opacity="0" offset="1"/>
		</linearGradient>
		<path d="m39.1 76.45c-0.2-4 0.117-7.684 0.95-11.05 0.8-3.134 1.717-4.934 2.75-5.4 1.034-0.467 1.733 0.316 2.1 2.35 0.333 1.834 0.35 4.467 0.05 7.9l-2 22.4c-0.567-1.301-1.15-2.95-1.75-4.95-1.2-3.967-1.9-7.717-2.1-11.25z" fill="url(#aa)"/>
			<linearGradient id="ab" x1="-105.07" x2="-98.352" y1="10.455" y2="10.455" gradientTransform="matrix(-.2678 -.9635 .9635 -.2678 -4.6372e-5 -.00057042)" gradientUnits="userSpaceOnUse">
			<stop stop-color="#87D6D4" offset="0"/>
			<stop stop-color="#87D6D4" stop-opacity="0" offset="1"/>
		</linearGradient>
		<path d="m38.2 92.7c0.933-0.033 1.783 0.767 2.55 2.399 0.367 0.801 0.65 1.601 0.85 2.4-2.667 0.566-5 0.917-7 1.05 0.233-0.967 0.566-1.934 1-2.899 0.833-1.933 1.7-2.917 2.6-2.95z" fill="url(#ab)"/>
			<linearGradient id="ac" x1="-102.28" x2="-86.274" y1="-3.9131" y2="-3.9131" gradientTransform="matrix(-.2671 -.9637 .9637 -.2671 -3.6806e-5 -.00078416)" gradientUnits="userSpaceOnUse">
			<stop stop-color="#87D6D4" offset="0"/>
			<stop stop-color="#87D6D4" stop-opacity="0" offset="1"/>
		</linearGradient>
		<path d="m13.75 98.6c1.167-2.133 2.633-4.316 4.4-6.55 3.533-4.434 6.817-6.866 9.85-7.3 1.533-0.233 1.733 2.05 0.6 6.85-0.567 2.4-1.283 4.817-2.15 7.25-5.1-0.4-9.333-0.484-12.7-0.25z" fill="url(#ac)"/>
			<linearGradient id="ad" x1="-65.731" x2="-33.045" y1="32.376" y2="32.376" gradientTransform="matrix(-.2669 -.9637 .9637 -.2669 .00036031 -.00064382)" gradientUnits="userSpaceOnUse">
			<stop stop-color="#87D6D4" offset="0"/>
			<stop stop-color="#87D6D4" stop-opacity="0" offset="1"/>
		</linearGradient>
		<path d="m45.25 47.15c-0.433 3.267-1.233 6.35-2.4 9.25-0.9-1.434-1.717-3.217-2.45-5.351-1.433-4.233-1.65-8.05-0.65-11.45s2.75-6.55 5.25-9.45c1.233-1.467 2.367-2.583 3.4-3.35-0.566 2.5-1.233 5.267-2 8.3-0.467 1.733-0.733 3.7-0.8 5.9-0.1 3.034-0.217 5.084-0.35 6.151z" fill="url(#ad)"/>
			<linearGradient id="ae" x1="-72.597" x2="-49.537" y1="14.656" y2="14.656" gradientTransform="matrix(-.2667 -.9638 .9638 -.2667 -4.8697e-5 -.00041446)" gradientUnits="userSpaceOnUse">
			<stop stop-color="#87D6D4" offset="0"/>
			<stop stop-color="#87D6D4" stop-opacity="0" offset="1"/>
		</linearGradient>
		<path d="m33.95 47.3c0.433 1.667 0.2 4.767-0.7 9.3-0.6 2.934-1.267 5.617-2 8.051-0.2 0.767-0.417 1.533-0.65 2.3-0.233 0.133-0.833-0.733-1.8-2.601-1.533-2.433-2.483-4.149-2.85-5.149-0.6-1.634-0.25-3.351 1.05-5.15 1-1.767 2.033-3.383 3.1-4.85 2.133-2.901 3.417-3.534 3.85-1.901z" fill="url(#ae)"/>
			<linearGradient id="ag" x1="-42.362" x2="-19.666" y1="36.017" y2="36.017" gradientTransform="matrix(-.2666 -.9638 .9638 -.2666 .00035441 -.00077444)" gradientUnits="userSpaceOnUse">
			<stop stop-color="#87D6D4" offset="0"/>
			<stop stop-color="#87D6D4" stop-opacity="0" offset="1"/>
		</linearGradient>
		<path d="m44.1 21.1c1.533-2.934 3.133-6.3 4.8-10.1l0.2 2.3c0 2.133-0.35 4.684-1.05 7.65-0.7 3-2.55 5.983-5.55 8.95-1.467 1.5-2.883 2.684-4.25 3.55-0.467 0.033 0.083-1.467 1.65-4.5 2.033-3.767 3.433-6.383 4.2-7.85z" fill="url(#ag)"/>
	</g>
</svg>