<?xml version="1.0" encoding="UTF-8"?>
<svg viewBox="0 0 254.72107 620.91541" xmlns="http://www.w3.org/2000/svg">
 <defs>
  <linearGradient id="a" x1="121.5" x2="468.29" y1="437.89" y2="443.89" gradientUnits="userSpaceOnUse">
   <stop stop-color="#002b11" offset="0"/>
   <stop stop-color="#0ef86b" offset="1"/>
  </linearGradient>
 </defs>
 <g transform="translate(-112.06 -120.5)">
  <path d="m212.03 120.5-0.75 0.21875c-3.5722-0.0762-6.0152 1.1412-7.2812 3.9375v27.719c-9.3839 12.165-8.2762 17.833 1 22-4.648 54.277-8.9357 99.474-16 161-57.355 19.853-75.207 73.753-74 123-3.0114 106.16-2.4829 175.97-2.9375 258.72 1.4988 5.6899 3.6744 9.7963 7.5938 12.812 70.927 13.68 149.19 16.298 239 1.6562 4.0291-2.779 6.3051-6.3139 7.5625-11.5 1.9932-100.12-1.7382-180.23-4.2188-264.69-5.6949-56.559-26.716-99.706-75-119-1.8838-35.621-7.729-106.89-12-164 14.294-7 5.2103-14-1-21v-25.125c-1.2284-2.8202-3.3917-4.4306-6.4688-4.9688l-55.5-0.78125z" fill="url(#a)"/>
  <path d="m277 340.36c57.706 37.909 86.933 349.35 80 121-0.92412-60.121-39.101-114.18-80-121z" fill="#d7f4d7" opacity=".61089"/>
  <path d="m272 175.36-17-1v152c3.461 19.88 29.054 12.042 28-10z" fill="#d7f4d7" opacity=".50584"/>
  <path d="m206 160.36c-3.0092 3.0741-12.986 4.0044 0 12l66 0.5c13.633-6.9929 4.6039-10.201 1-13.5 13.557 8.0369-75.483 11.595-67 1z" fill="#050"/>
  <path d="m213 151.36c-25.081-4.3561 45.969-4.1935 52-13.5 19.7 4.2392-3.8785 10.591-52 13.5z" fill="#050"/>
  <path d="m213 139.36c-25.081-4.3561 45.969-4.1935 52-13.5 19.7 4.2392-3.8785 10.591-52 13.5z" fill="#050"/>
  <path d="m213 139.36c-25.081-4.3561 45.969-4.1935 52-13.5 19.7 4.2392-3.8785 10.591-52 13.5z" fill="#050"/>
  <path d="m269 155.36c3.8527-3.7827 7.4539-0.0565 10 4-33.129 1.1389-26.845-0.43011-50.5 1.5 20.667-3.464 19.833-5.3154 40.5-5.5z" fill="#d7f4d7" opacity=".46304"/>
 </g>
</svg>
